<mxfile host="app.diagrams.net" modified="2022-03-26T19:00:34.357Z" agent="5.0 (Macintosh; Intel Mac OS X 10_15_7) AppleWebKit/605.1.15 (KHTML, like Gecko) Version/15.2 Safari/605.1.15" etag="vSnqRwmJa8BsEvFzB0gC" version="17.2.4" type="github" pages="2">
  <diagram id="C5RBs43oDa-KdzZeNtuy" name="UML">
    <mxGraphModel dx="1426" dy="729" grid="1" gridSize="10" guides="1" tooltips="1" connect="1" arrows="1" fold="1" page="1" pageScale="1" pageWidth="827" pageHeight="1169" math="0" shadow="0">
      <root>
        <mxCell id="WIyWlLk6GJQsqaUBKTNV-0" />
        <mxCell id="WIyWlLk6GJQsqaUBKTNV-1" parent="WIyWlLk6GJQsqaUBKTNV-0" />
        <mxCell id="Or8MDgzWeUA1rg3pKt2o-17" value="Automobile" style="swimlane;fontStyle=0;childLayout=stackLayout;horizontal=1;startSize=26;fillColor=none;horizontalStack=0;resizeParent=1;resizeParentMax=0;resizeLast=0;collapsible=1;marginBottom=0;" parent="WIyWlLk6GJQsqaUBKTNV-1" vertex="1">
          <mxGeometry x="400" y="757" width="140" height="78" as="geometry" />
        </mxCell>
        <mxCell id="Or8MDgzWeUA1rg3pKt2o-19" value="+ vin : string" style="text;strokeColor=none;fillColor=none;align=left;verticalAlign=top;spacingLeft=4;spacingRight=4;overflow=hidden;rotatable=0;points=[[0,0.5],[1,0.5]];portConstraint=eastwest;" parent="Or8MDgzWeUA1rg3pKt2o-17" vertex="1">
          <mxGeometry y="26" width="140" height="26" as="geometry" />
        </mxCell>
        <mxCell id="o4tWrnGbzl8JwMSjb8Ak-13" value="+ color : string" style="text;strokeColor=none;fillColor=none;align=left;verticalAlign=top;spacingLeft=4;spacingRight=4;overflow=hidden;rotatable=0;points=[[0,0.5],[1,0.5]];portConstraint=eastwest;" parent="Or8MDgzWeUA1rg3pKt2o-17" vertex="1">
          <mxGeometry y="52" width="140" height="26" as="geometry" />
        </mxCell>
        <mxCell id="Ud0a_NICC3Nt5wF7IsXR-11" style="edgeStyle=orthogonalEdgeStyle;rounded=0;orthogonalLoop=1;jettySize=auto;html=1;endArrow=none;endFill=0;" parent="WIyWlLk6GJQsqaUBKTNV-1" source="Or8MDgzWeUA1rg3pKt2o-31" target="Or8MDgzWeUA1rg3pKt2o-44" edge="1">
          <mxGeometry relative="1" as="geometry" />
        </mxCell>
        <mxCell id="Or8MDgzWeUA1rg3pKt2o-31" value="Manufacturer" style="swimlane;fontStyle=0;childLayout=stackLayout;horizontal=1;startSize=26;fillColor=none;horizontalStack=0;resizeParent=1;resizeParentMax=0;resizeLast=0;collapsible=1;marginBottom=0;" parent="WIyWlLk6GJQsqaUBKTNV-1" vertex="1">
          <mxGeometry x="400" y="116" width="140" height="52" as="geometry" />
        </mxCell>
        <mxCell id="Or8MDgzWeUA1rg3pKt2o-32" value="+ name : string" style="text;strokeColor=none;fillColor=none;align=left;verticalAlign=top;spacingLeft=4;spacingRight=4;overflow=hidden;rotatable=0;points=[[0,0.5],[1,0.5]];portConstraint=eastwest;" parent="Or8MDgzWeUA1rg3pKt2o-31" vertex="1">
          <mxGeometry y="26" width="140" height="26" as="geometry" />
        </mxCell>
        <mxCell id="Or8MDgzWeUA1rg3pKt2o-34" value="1..1" style="text;html=1;align=center;verticalAlign=middle;resizable=0;points=[];autosize=1;strokeColor=none;fillColor=none;" parent="WIyWlLk6GJQsqaUBKTNV-1" vertex="1">
          <mxGeometry x="420" y="168" width="40" height="20" as="geometry" />
        </mxCell>
        <mxCell id="Or8MDgzWeUA1rg3pKt2o-35" value="0..*" style="text;html=1;align=center;verticalAlign=middle;resizable=0;points=[];autosize=1;strokeColor=none;fillColor=none;" parent="WIyWlLk6GJQsqaUBKTNV-1" vertex="1">
          <mxGeometry x="430" y="289" width="30" height="20" as="geometry" />
        </mxCell>
        <mxCell id="Ud0a_NICC3Nt5wF7IsXR-9" style="edgeStyle=orthogonalEdgeStyle;rounded=0;orthogonalLoop=1;jettySize=auto;html=1;entryX=0.5;entryY=0;entryDx=0;entryDy=0;endArrow=none;endFill=0;" parent="WIyWlLk6GJQsqaUBKTNV-1" source="Or8MDgzWeUA1rg3pKt2o-44" target="8DEb6k_h8O8LY1NTbbbO-2" edge="1">
          <mxGeometry relative="1" as="geometry" />
        </mxCell>
        <mxCell id="-DOf1A34W1WNaZHsbsLS-14" style="edgeStyle=orthogonalEdgeStyle;rounded=0;orthogonalLoop=1;jettySize=auto;html=1;endArrow=none;endFill=0;" parent="WIyWlLk6GJQsqaUBKTNV-1" source="Or8MDgzWeUA1rg3pKt2o-44" target="-DOf1A34W1WNaZHsbsLS-1" edge="1">
          <mxGeometry relative="1" as="geometry" />
        </mxCell>
        <mxCell id="Or8MDgzWeUA1rg3pKt2o-44" value="Model" style="swimlane;fontStyle=0;childLayout=stackLayout;horizontal=1;startSize=26;fillColor=none;horizontalStack=0;resizeParent=1;resizeParentMax=0;resizeLast=0;collapsible=1;marginBottom=0;" parent="WIyWlLk6GJQsqaUBKTNV-1" vertex="1">
          <mxGeometry x="400" y="309" width="140" height="104" as="geometry" />
        </mxCell>
        <mxCell id="Or8MDgzWeUA1rg3pKt2o-45" value="+ name : string" style="text;strokeColor=none;fillColor=none;align=left;verticalAlign=top;spacingLeft=4;spacingRight=4;overflow=hidden;rotatable=0;points=[[0,0.5],[1,0.5]];portConstraint=eastwest;" parent="Or8MDgzWeUA1rg3pKt2o-44" vertex="1">
          <mxGeometry y="26" width="140" height="26" as="geometry" />
        </mxCell>
        <mxCell id="o4tWrnGbzl8JwMSjb8Ak-18" value="+ year : int" style="text;strokeColor=none;fillColor=none;align=left;verticalAlign=top;spacingLeft=4;spacingRight=4;overflow=hidden;rotatable=0;points=[[0,0.5],[1,0.5]];portConstraint=eastwest;" parent="Or8MDgzWeUA1rg3pKt2o-44" vertex="1">
          <mxGeometry y="52" width="140" height="26" as="geometry" />
        </mxCell>
        <mxCell id="o4tWrnGbzl8JwMSjb8Ak-20" value="+ bodyType : string" style="text;strokeColor=none;fillColor=none;align=left;verticalAlign=top;spacingLeft=4;spacingRight=4;overflow=hidden;rotatable=0;points=[[0,0.5],[1,0.5]];portConstraint=eastwest;" parent="Or8MDgzWeUA1rg3pKt2o-44" vertex="1">
          <mxGeometry y="78" width="140" height="26" as="geometry" />
        </mxCell>
        <mxCell id="Or8MDgzWeUA1rg3pKt2o-52" value="1..1" style="text;html=1;align=center;verticalAlign=middle;resizable=0;points=[];autosize=1;strokeColor=none;fillColor=none;" parent="WIyWlLk6GJQsqaUBKTNV-1" vertex="1">
          <mxGeometry x="430" y="416" width="40" height="20" as="geometry" />
        </mxCell>
        <mxCell id="-m3CD6y7b0vlXwfP6cMi-0" value="produces V" style="text;html=1;align=center;verticalAlign=middle;resizable=0;points=[];autosize=1;strokeColor=none;fillColor=none;" parent="WIyWlLk6GJQsqaUBKTNV-1" vertex="1">
          <mxGeometry x="390" y="220" width="80" height="20" as="geometry" />
        </mxCell>
        <mxCell id="Ud0a_NICC3Nt5wF7IsXR-8" style="edgeStyle=orthogonalEdgeStyle;rounded=0;orthogonalLoop=1;jettySize=auto;html=1;entryX=0.5;entryY=0;entryDx=0;entryDy=0;endArrow=none;endFill=0;" parent="WIyWlLk6GJQsqaUBKTNV-1" source="8DEb6k_h8O8LY1NTbbbO-2" target="Or8MDgzWeUA1rg3pKt2o-17" edge="1">
          <mxGeometry relative="1" as="geometry" />
        </mxCell>
        <mxCell id="8DEb6k_h8O8LY1NTbbbO-2" value="Trim" style="swimlane;fontStyle=0;childLayout=stackLayout;horizontal=1;startSize=26;fillColor=none;horizontalStack=0;resizeParent=1;resizeParentMax=0;resizeLast=0;collapsible=1;marginBottom=0;" parent="WIyWlLk6GJQsqaUBKTNV-1" vertex="1">
          <mxGeometry x="400" y="520" width="140" height="78" as="geometry" />
        </mxCell>
        <mxCell id="8DEb6k_h8O8LY1NTbbbO-3" value="+ name: string" style="text;strokeColor=none;fillColor=none;align=left;verticalAlign=top;spacingLeft=4;spacingRight=4;overflow=hidden;rotatable=0;points=[[0,0.5],[1,0.5]];portConstraint=eastwest;" parent="8DEb6k_h8O8LY1NTbbbO-2" vertex="1">
          <mxGeometry y="26" width="140" height="26" as="geometry" />
        </mxCell>
        <mxCell id="8DEb6k_h8O8LY1NTbbbO-4" value="+ price: int" style="text;strokeColor=none;fillColor=none;align=left;verticalAlign=top;spacingLeft=4;spacingRight=4;overflow=hidden;rotatable=0;points=[[0,0.5],[1,0.5]];portConstraint=eastwest;" parent="8DEb6k_h8O8LY1NTbbbO-2" vertex="1">
          <mxGeometry y="52" width="140" height="26" as="geometry" />
        </mxCell>
        <mxCell id="8DEb6k_h8O8LY1NTbbbO-6" value="Feature" style="swimlane;fontStyle=0;childLayout=stackLayout;horizontal=1;startSize=26;fillColor=none;horizontalStack=0;resizeParent=1;resizeParentMax=0;resizeLast=0;collapsible=1;marginBottom=0;" parent="WIyWlLk6GJQsqaUBKTNV-1" vertex="1">
          <mxGeometry x="945" y="520" width="140" height="52" as="geometry" />
        </mxCell>
        <mxCell id="8DEb6k_h8O8LY1NTbbbO-7" value="+ feature : string" style="text;strokeColor=none;fillColor=none;align=left;verticalAlign=top;spacingLeft=4;spacingRight=4;overflow=hidden;rotatable=0;points=[[0,0.5],[1,0.5]];portConstraint=eastwest;" parent="8DEb6k_h8O8LY1NTbbbO-6" vertex="1">
          <mxGeometry y="26" width="140" height="26" as="geometry" />
        </mxCell>
        <mxCell id="-DOf1A34W1WNaZHsbsLS-8" style="edgeStyle=orthogonalEdgeStyle;rounded=0;orthogonalLoop=1;jettySize=auto;html=1;endArrow=none;endFill=0;" parent="WIyWlLk6GJQsqaUBKTNV-1" source="8DEb6k_h8O8LY1NTbbbO-10" target="-DOf1A34W1WNaZHsbsLS-7" edge="1">
          <mxGeometry relative="1" as="geometry" />
        </mxCell>
        <mxCell id="8DEb6k_h8O8LY1NTbbbO-10" value="Package" style="swimlane;fontStyle=0;childLayout=stackLayout;horizontal=1;startSize=26;fillColor=none;horizontalStack=0;resizeParent=1;resizeParentMax=0;resizeLast=0;collapsible=1;marginBottom=0;" parent="WIyWlLk6GJQsqaUBKTNV-1" vertex="1">
          <mxGeometry x="645" y="520" width="140" height="52" as="geometry" />
        </mxCell>
        <mxCell id="8DEb6k_h8O8LY1NTbbbO-12" value="+ name: string" style="text;strokeColor=none;fillColor=none;align=left;verticalAlign=top;spacingLeft=4;spacingRight=4;overflow=hidden;rotatable=0;points=[[0,0.5],[1,0.5]];portConstraint=eastwest;" parent="8DEb6k_h8O8LY1NTbbbO-10" vertex="1">
          <mxGeometry y="26" width="140" height="26" as="geometry" />
        </mxCell>
        <mxCell id="Ud0a_NICC3Nt5wF7IsXR-12" value="1..*" style="text;html=1;align=center;verticalAlign=middle;resizable=0;points=[];autosize=1;strokeColor=none;fillColor=none;" parent="WIyWlLk6GJQsqaUBKTNV-1" vertex="1">
          <mxGeometry x="430" y="500" width="30" height="20" as="geometry" />
        </mxCell>
        <mxCell id="Ud0a_NICC3Nt5wF7IsXR-15" value="describes V" style="text;html=1;align=center;verticalAlign=middle;resizable=0;points=[];autosize=1;strokeColor=none;fillColor=none;" parent="WIyWlLk6GJQsqaUBKTNV-1" vertex="1">
          <mxGeometry x="385" y="680" width="80" height="20" as="geometry" />
        </mxCell>
        <mxCell id="Ud0a_NICC3Nt5wF7IsXR-16" value="1..1" style="text;html=1;align=center;verticalAlign=middle;resizable=0;points=[];autosize=1;strokeColor=none;fillColor=none;" parent="WIyWlLk6GJQsqaUBKTNV-1" vertex="1">
          <mxGeometry x="425" y="624" width="40" height="20" as="geometry" />
        </mxCell>
        <mxCell id="Ud0a_NICC3Nt5wF7IsXR-17" value="1..*" style="text;html=1;align=center;verticalAlign=middle;resizable=0;points=[];autosize=1;strokeColor=none;fillColor=none;" parent="WIyWlLk6GJQsqaUBKTNV-1" vertex="1">
          <mxGeometry x="430" y="737" width="30" height="20" as="geometry" />
        </mxCell>
        <mxCell id="RyBGBllqxRV5RHMmIfuP-0" value="1..*" style="text;html=1;align=center;verticalAlign=middle;resizable=0;points=[];autosize=1;strokeColor=none;fillColor=none;" parent="WIyWlLk6GJQsqaUBKTNV-1" vertex="1">
          <mxGeometry x="615" y="540" width="30" height="20" as="geometry" />
        </mxCell>
        <mxCell id="RyBGBllqxRV5RHMmIfuP-1" value="1..*" style="text;html=1;align=center;verticalAlign=middle;resizable=0;points=[];autosize=1;strokeColor=none;fillColor=none;" parent="WIyWlLk6GJQsqaUBKTNV-1" vertex="1">
          <mxGeometry x="510" y="500" width="30" height="20" as="geometry" />
        </mxCell>
        <mxCell id="6gt69slnPqPusQmVnWQh-2" value="trimPackage" style="swimlane;fontStyle=0;childLayout=stackLayout;horizontal=1;startSize=26;fillColor=none;horizontalStack=0;resizeParent=1;resizeParentMax=0;resizeLast=0;collapsible=1;marginBottom=0;" parent="WIyWlLk6GJQsqaUBKTNV-1" vertex="1">
          <mxGeometry x="520" y="624" width="140" height="52" as="geometry" />
        </mxCell>
        <mxCell id="6gt69slnPqPusQmVnWQh-3" value="+ price: int" style="text;strokeColor=none;fillColor=none;align=left;verticalAlign=top;spacingLeft=4;spacingRight=4;overflow=hidden;rotatable=0;points=[[0,0.5],[1,0.5]];portConstraint=eastwest;" parent="6gt69slnPqPusQmVnWQh-2" vertex="1">
          <mxGeometry y="26" width="140" height="26" as="geometry" />
        </mxCell>
        <mxCell id="6gt69slnPqPusQmVnWQh-7" style="edgeStyle=orthogonalEdgeStyle;rounded=0;orthogonalLoop=1;jettySize=auto;html=1;exitX=1;exitY=0.5;exitDx=0;exitDy=0;entryX=0;entryY=0.5;entryDx=0;entryDy=0;endArrow=none;endFill=0;" parent="WIyWlLk6GJQsqaUBKTNV-1" source="8DEb6k_h8O8LY1NTbbbO-3" edge="1">
          <mxGeometry relative="1" as="geometry">
            <Array as="points">
              <mxPoint x="540" y="560" />
              <mxPoint x="645" y="560" />
            </Array>
            <mxPoint x="645" y="559" as="targetPoint" />
          </mxGeometry>
        </mxCell>
        <mxCell id="6gt69slnPqPusQmVnWQh-14" value="" style="endArrow=none;dashed=1;html=1;rounded=0;strokeColor=default;" parent="WIyWlLk6GJQsqaUBKTNV-1" edge="1">
          <mxGeometry width="50" height="50" relative="1" as="geometry">
            <mxPoint x="590" y="620" as="sourcePoint" />
            <mxPoint x="590" y="560" as="targetPoint" />
          </mxGeometry>
        </mxCell>
        <mxCell id="VV0gFn5aZjYCtKNme97P-0" value="1..*" style="text;html=1;align=center;verticalAlign=middle;resizable=0;points=[];autosize=1;strokeColor=none;fillColor=none;" parent="WIyWlLk6GJQsqaUBKTNV-1" vertex="1">
          <mxGeometry x="1020" y="500" width="30" height="20" as="geometry" />
        </mxCell>
        <mxCell id="-DOf1A34W1WNaZHsbsLS-0" value="ModelFeature" style="swimlane;fontStyle=0;childLayout=stackLayout;horizontal=1;startSize=26;fillColor=none;horizontalStack=0;resizeParent=1;resizeParentMax=0;resizeLast=0;collapsible=1;marginBottom=0;" parent="WIyWlLk6GJQsqaUBKTNV-1" vertex="1">
          <mxGeometry x="757" y="322" width="140" height="52" as="geometry" />
        </mxCell>
        <mxCell id="-DOf1A34W1WNaZHsbsLS-1" value="+ feature : string" style="text;strokeColor=none;fillColor=none;align=left;verticalAlign=top;spacingLeft=4;spacingRight=4;overflow=hidden;rotatable=0;points=[[0,0.5],[1,0.5]];portConstraint=eastwest;" parent="-DOf1A34W1WNaZHsbsLS-0" vertex="1">
          <mxGeometry y="26" width="140" height="26" as="geometry" />
        </mxCell>
        <mxCell id="-DOf1A34W1WNaZHsbsLS-6" value="PackageFeature" style="swimlane;fontStyle=0;childLayout=stackLayout;horizontal=1;startSize=26;fillColor=none;horizontalStack=0;resizeParent=1;resizeParentMax=0;resizeLast=0;collapsible=1;marginBottom=0;" parent="WIyWlLk6GJQsqaUBKTNV-1" vertex="1">
          <mxGeometry x="800" y="630" width="140" height="52" as="geometry" />
        </mxCell>
        <mxCell id="-DOf1A34W1WNaZHsbsLS-7" value="+ feature : string" style="text;strokeColor=none;fillColor=none;align=left;verticalAlign=top;spacingLeft=4;spacingRight=4;overflow=hidden;rotatable=0;points=[[0,0.5],[1,0.5]];portConstraint=eastwest;" parent="-DOf1A34W1WNaZHsbsLS-6" vertex="1">
          <mxGeometry y="26" width="140" height="26" as="geometry" />
        </mxCell>
        <mxCell id="-DOf1A34W1WNaZHsbsLS-9" style="edgeStyle=orthogonalEdgeStyle;rounded=0;orthogonalLoop=1;jettySize=auto;html=1;entryX=0.529;entryY=0.962;entryDx=0;entryDy=0;entryPerimeter=0;endArrow=none;endFill=0;" parent="WIyWlLk6GJQsqaUBKTNV-1" source="-DOf1A34W1WNaZHsbsLS-7" target="8DEb6k_h8O8LY1NTbbbO-7" edge="1">
          <mxGeometry relative="1" as="geometry" />
        </mxCell>
        <mxCell id="-DOf1A34W1WNaZHsbsLS-10" value="TrimFeature" style="swimlane;fontStyle=0;childLayout=stackLayout;horizontal=1;startSize=26;fillColor=none;horizontalStack=0;resizeParent=1;resizeParentMax=0;resizeLast=0;collapsible=1;marginBottom=0;" parent="WIyWlLk6GJQsqaUBKTNV-1" vertex="1">
          <mxGeometry x="645" y="413" width="140" height="52" as="geometry" />
        </mxCell>
        <mxCell id="-DOf1A34W1WNaZHsbsLS-11" value="+ feature : string" style="text;strokeColor=none;fillColor=none;align=left;verticalAlign=top;spacingLeft=4;spacingRight=4;overflow=hidden;rotatable=0;points=[[0,0.5],[1,0.5]];portConstraint=eastwest;" parent="-DOf1A34W1WNaZHsbsLS-10" vertex="1">
          <mxGeometry y="26" width="140" height="26" as="geometry" />
        </mxCell>
        <mxCell id="-DOf1A34W1WNaZHsbsLS-16" style="edgeStyle=orthogonalEdgeStyle;rounded=0;orthogonalLoop=1;jettySize=auto;html=1;entryX=0.5;entryY=0;entryDx=0;entryDy=0;endArrow=none;endFill=0;" parent="WIyWlLk6GJQsqaUBKTNV-1" source="-DOf1A34W1WNaZHsbsLS-1" target="8DEb6k_h8O8LY1NTbbbO-6" edge="1">
          <mxGeometry relative="1" as="geometry" />
        </mxCell>
        <mxCell id="-DOf1A34W1WNaZHsbsLS-17" value="1..*" style="text;html=1;align=center;verticalAlign=middle;resizable=0;points=[];autosize=1;strokeColor=none;fillColor=none;" parent="WIyWlLk6GJQsqaUBKTNV-1" vertex="1">
          <mxGeometry x="540" y="338" width="30" height="20" as="geometry" />
        </mxCell>
        <mxCell id="-DOf1A34W1WNaZHsbsLS-19" value="1..1" style="text;html=1;align=center;verticalAlign=middle;resizable=0;points=[];autosize=1;strokeColor=none;fillColor=none;" parent="WIyWlLk6GJQsqaUBKTNV-1" vertex="1">
          <mxGeometry x="717" y="338" width="40" height="20" as="geometry" />
        </mxCell>
        <mxCell id="-DOf1A34W1WNaZHsbsLS-20" value="1..1" style="text;html=1;align=center;verticalAlign=middle;resizable=0;points=[];autosize=1;strokeColor=none;fillColor=none;" parent="WIyWlLk6GJQsqaUBKTNV-1" vertex="1">
          <mxGeometry x="900" y="338" width="40" height="20" as="geometry" />
        </mxCell>
        <mxCell id="-DOf1A34W1WNaZHsbsLS-21" value="1..*" style="text;html=1;align=center;verticalAlign=middle;resizable=0;points=[];autosize=1;strokeColor=none;fillColor=none;" parent="WIyWlLk6GJQsqaUBKTNV-1" vertex="1">
          <mxGeometry x="1020" y="575" width="30" height="20" as="geometry" />
        </mxCell>
        <mxCell id="-DOf1A34W1WNaZHsbsLS-22" value="1..*" style="text;html=1;align=center;verticalAlign=middle;resizable=0;points=[];autosize=1;strokeColor=none;fillColor=none;" parent="WIyWlLk6GJQsqaUBKTNV-1" vertex="1">
          <mxGeometry x="717" y="572" width="30" height="20" as="geometry" />
        </mxCell>
        <mxCell id="-DOf1A34W1WNaZHsbsLS-23" value="1..*" style="text;html=1;align=center;verticalAlign=middle;resizable=0;points=[];autosize=1;strokeColor=none;fillColor=none;" parent="WIyWlLk6GJQsqaUBKTNV-1" vertex="1">
          <mxGeometry x="540" y="565" width="30" height="20" as="geometry" />
        </mxCell>
        <mxCell id="-DOf1A34W1WNaZHsbsLS-24" value="1..*" style="text;html=1;align=center;verticalAlign=middle;resizable=0;points=[];autosize=1;strokeColor=none;fillColor=none;" parent="WIyWlLk6GJQsqaUBKTNV-1" vertex="1">
          <mxGeometry x="910" y="536" width="30" height="20" as="geometry" />
        </mxCell>
        <mxCell id="-DOf1A34W1WNaZHsbsLS-25" value="1..1" style="text;html=1;align=center;verticalAlign=middle;resizable=0;points=[];autosize=1;strokeColor=none;fillColor=none;" parent="WIyWlLk6GJQsqaUBKTNV-1" vertex="1">
          <mxGeometry x="760" y="646" width="40" height="20" as="geometry" />
        </mxCell>
        <mxCell id="-DOf1A34W1WNaZHsbsLS-26" value="1..1" style="text;html=1;align=center;verticalAlign=middle;resizable=0;points=[];autosize=1;strokeColor=none;fillColor=none;" parent="WIyWlLk6GJQsqaUBKTNV-1" vertex="1">
          <mxGeometry x="945" y="646" width="40" height="20" as="geometry" />
        </mxCell>
        <mxCell id="-DOf1A34W1WNaZHsbsLS-27" value="1..1" style="text;html=1;align=center;verticalAlign=middle;resizable=0;points=[];autosize=1;strokeColor=none;fillColor=none;" parent="WIyWlLk6GJQsqaUBKTNV-1" vertex="1">
          <mxGeometry x="600" y="430" width="40" height="20" as="geometry" />
        </mxCell>
        <mxCell id="-DOf1A34W1WNaZHsbsLS-28" value="1..1" style="text;html=1;align=center;verticalAlign=middle;resizable=0;points=[];autosize=1;strokeColor=none;fillColor=none;" parent="WIyWlLk6GJQsqaUBKTNV-1" vertex="1">
          <mxGeometry x="785" y="429" width="40" height="20" as="geometry" />
        </mxCell>
        <mxCell id="-DOf1A34W1WNaZHsbsLS-31" style="edgeStyle=orthogonalEdgeStyle;rounded=0;orthogonalLoop=1;jettySize=auto;html=1;entryX=1;entryY=0;entryDx=0;entryDy=0;endArrow=none;endFill=0;" parent="WIyWlLk6GJQsqaUBKTNV-1" source="-DOf1A34W1WNaZHsbsLS-11" target="8DEb6k_h8O8LY1NTbbbO-2" edge="1">
          <mxGeometry relative="1" as="geometry" />
        </mxCell>
        <mxCell id="-DOf1A34W1WNaZHsbsLS-32" style="edgeStyle=orthogonalEdgeStyle;rounded=0;orthogonalLoop=1;jettySize=auto;html=1;entryX=0;entryY=0.5;entryDx=0;entryDy=0;endArrow=none;endFill=0;" parent="WIyWlLk6GJQsqaUBKTNV-1" source="-DOf1A34W1WNaZHsbsLS-11" target="8DEb6k_h8O8LY1NTbbbO-7" edge="1">
          <mxGeometry relative="1" as="geometry" />
        </mxCell>
        <mxCell id="7df-t5IYlIwixRJtGi0B-4" style="edgeStyle=orthogonalEdgeStyle;rounded=0;orthogonalLoop=1;jettySize=auto;html=1;entryX=0.386;entryY=1;entryDx=0;entryDy=0;entryPerimeter=0;endArrow=none;endFill=0;" edge="1" parent="WIyWlLk6GJQsqaUBKTNV-1" source="7df-t5IYlIwixRJtGi0B-0" target="8DEb6k_h8O8LY1NTbbbO-12">
          <mxGeometry relative="1" as="geometry">
            <Array as="points">
              <mxPoint x="699" y="710" />
              <mxPoint x="699" y="710" />
            </Array>
          </mxGeometry>
        </mxCell>
        <mxCell id="7df-t5IYlIwixRJtGi0B-0" value="AutomobilePackage" style="swimlane;fontStyle=0;childLayout=stackLayout;horizontal=1;startSize=26;fillColor=none;horizontalStack=0;resizeParent=1;resizeParentMax=0;resizeLast=0;collapsible=1;marginBottom=0;" vertex="1" parent="WIyWlLk6GJQsqaUBKTNV-1">
          <mxGeometry x="640" y="763" width="140" height="52" as="geometry" />
        </mxCell>
        <mxCell id="7df-t5IYlIwixRJtGi0B-1" value="+ valid: boolean" style="text;strokeColor=none;fillColor=none;align=left;verticalAlign=top;spacingLeft=4;spacingRight=4;overflow=hidden;rotatable=0;points=[[0,0.5],[1,0.5]];portConstraint=eastwest;" vertex="1" parent="7df-t5IYlIwixRJtGi0B-0">
          <mxGeometry y="26" width="140" height="26" as="geometry" />
        </mxCell>
        <mxCell id="7df-t5IYlIwixRJtGi0B-3" style="edgeStyle=orthogonalEdgeStyle;rounded=0;orthogonalLoop=1;jettySize=auto;html=1;entryX=0;entryY=0.269;entryDx=0;entryDy=0;entryPerimeter=0;endArrow=none;endFill=0;" edge="1" parent="WIyWlLk6GJQsqaUBKTNV-1" source="Or8MDgzWeUA1rg3pKt2o-19" target="7df-t5IYlIwixRJtGi0B-1">
          <mxGeometry relative="1" as="geometry" />
        </mxCell>
        <mxCell id="SuVrjZ337fuIrmnMwLbn-0" value="1..1" style="text;html=1;align=center;verticalAlign=middle;resizable=0;points=[];autosize=1;strokeColor=none;fillColor=none;" vertex="1" parent="WIyWlLk6GJQsqaUBKTNV-1">
          <mxGeometry x="540" y="795" width="40" height="20" as="geometry" />
        </mxCell>
        <mxCell id="SuVrjZ337fuIrmnMwLbn-1" value="1..1" style="text;html=1;align=center;verticalAlign=middle;resizable=0;points=[];autosize=1;strokeColor=none;fillColor=none;" vertex="1" parent="WIyWlLk6GJQsqaUBKTNV-1">
          <mxGeometry x="660" y="572" width="40" height="20" as="geometry" />
        </mxCell>
        <mxCell id="SuVrjZ337fuIrmnMwLbn-2" value="1..*" style="text;html=1;align=center;verticalAlign=middle;resizable=0;points=[];autosize=1;strokeColor=none;fillColor=none;" vertex="1" parent="WIyWlLk6GJQsqaUBKTNV-1">
          <mxGeometry x="610" y="795" width="30" height="20" as="geometry" />
        </mxCell>
        <mxCell id="SuVrjZ337fuIrmnMwLbn-3" value="1..*" style="text;html=1;align=center;verticalAlign=middle;resizable=0;points=[];autosize=1;strokeColor=none;fillColor=none;" vertex="1" parent="WIyWlLk6GJQsqaUBKTNV-1">
          <mxGeometry x="670" y="737" width="30" height="20" as="geometry" />
        </mxCell>
      </root>
    </mxGraphModel>
  </diagram>
  <diagram id="vETBrN34HBiLYf2aGHaA" name="Scheme">
    <mxGraphModel dx="2276" dy="729" grid="1" gridSize="10" guides="1" tooltips="1" connect="1" arrows="1" fold="1" page="1" pageScale="1" pageWidth="850" pageHeight="1100" math="0" shadow="0">
      <root>
        <mxCell id="iczGk36Ovgoqb-Fh8N0Z-0" />
        <mxCell id="iczGk36Ovgoqb-Fh8N0Z-1" parent="iczGk36Ovgoqb-Fh8N0Z-0" />
        <mxCell id="a1B0v33AjIvHVEClIW8Y-0" value="UK" style="whiteSpace=wrap;html=1;fillColor=#d5e8d4;strokeColor=#82b366;" parent="iczGk36Ovgoqb-Fh8N0Z-1" vertex="1">
          <mxGeometry x="140" y="100" width="80" height="20" as="geometry" />
        </mxCell>
        <mxCell id="PdGvECBdAQsYEk5DXZ6r-13" style="edgeStyle=orthogonalEdgeStyle;rounded=0;orthogonalLoop=1;jettySize=auto;html=1;entryX=1;entryY=0.5;entryDx=0;entryDy=0;endArrow=none;endFill=0;" edge="1" parent="iczGk36Ovgoqb-Fh8N0Z-1" source="iczGk36Ovgoqb-Fh8N0Z-28" target="PdGvECBdAQsYEk5DXZ6r-12">
          <mxGeometry relative="1" as="geometry">
            <Array as="points">
              <mxPoint x="-75" y="880" />
              <mxPoint x="360" y="880" />
              <mxPoint x="360" y="810" />
            </Array>
          </mxGeometry>
        </mxCell>
        <mxCell id="iczGk36Ovgoqb-Fh8N0Z-28" value="PK" style="whiteSpace=wrap;html=1;fillColor=#fff2cc;strokeColor=#d6b656;" parent="iczGk36Ovgoqb-Fh8N0Z-1" vertex="1">
          <mxGeometry x="-110" y="840" width="70" height="20" as="geometry" />
        </mxCell>
        <mxCell id="iczGk36Ovgoqb-Fh8N0Z-27" value="vin" style="whiteSpace=wrap;html=1;" parent="iczGk36Ovgoqb-Fh8N0Z-1" vertex="1">
          <mxGeometry x="-110" y="820" width="70" height="20" as="geometry" />
        </mxCell>
        <mxCell id="iczGk36Ovgoqb-Fh8N0Z-11" value="FK" style="whiteSpace=wrap;html=1;fillColor=#dae8fc;strokeColor=#6c8ebf;" parent="iczGk36Ovgoqb-Fh8N0Z-1" vertex="1">
          <mxGeometry x="90" y="180" width="120" height="20" as="geometry" />
        </mxCell>
        <mxCell id="iczGk36Ovgoqb-Fh8N0Z-17" value="UK" style="whiteSpace=wrap;html=1;fillColor=#d5e8d4;strokeColor=#82b366;" parent="iczGk36Ovgoqb-Fh8N0Z-1" vertex="1">
          <mxGeometry x="210" y="220" width="250" height="20" as="geometry" />
        </mxCell>
        <mxCell id="iczGk36Ovgoqb-Fh8N0Z-5" value="PK" style="whiteSpace=wrap;html=1;fillColor=#fff2cc;strokeColor=#d6b656;" parent="iczGk36Ovgoqb-Fh8N0Z-1" vertex="1">
          <mxGeometry x="20" y="100" width="120" height="20" as="geometry" />
        </mxCell>
        <mxCell id="iczGk36Ovgoqb-Fh8N0Z-2" value="Manufacturers" style="text;html=1;align=center;verticalAlign=middle;resizable=0;points=[];autosize=1;strokeColor=none;fillColor=none;fontStyle=1" parent="iczGk36Ovgoqb-Fh8N0Z-1" vertex="1">
          <mxGeometry x="-110" y="90" width="100" height="20" as="geometry" />
        </mxCell>
        <mxCell id="iczGk36Ovgoqb-Fh8N0Z-3" value="manufacturer_id" style="whiteSpace=wrap;html=1;" parent="iczGk36Ovgoqb-Fh8N0Z-1" vertex="1">
          <mxGeometry x="20" y="80" width="120" height="20" as="geometry" />
        </mxCell>
        <mxCell id="iczGk36Ovgoqb-Fh8N0Z-4" value="name" style="whiteSpace=wrap;html=1;" parent="iczGk36Ovgoqb-Fh8N0Z-1" vertex="1">
          <mxGeometry x="140" y="80" width="80" height="20" as="geometry" />
        </mxCell>
        <mxCell id="iczGk36Ovgoqb-Fh8N0Z-6" value="Models" style="text;html=1;align=center;verticalAlign=middle;resizable=0;points=[];autosize=1;strokeColor=none;fillColor=none;fontStyle=1" parent="iczGk36Ovgoqb-Fh8N0Z-1" vertex="1">
          <mxGeometry x="-100" y="210" width="60" height="20" as="geometry" />
        </mxCell>
        <mxCell id="iPj5VQGkTCmIwQI4NGwS-35" style="edgeStyle=orthogonalEdgeStyle;rounded=0;orthogonalLoop=1;jettySize=auto;html=1;exitX=0.5;exitY=1;exitDx=0;exitDy=0;entryX=0.5;entryY=0;entryDx=0;entryDy=0;endArrow=none;endFill=0;" parent="iczGk36Ovgoqb-Fh8N0Z-1" source="iczGk36Ovgoqb-Fh8N0Z-7" target="KYDgk8bsDNhlpdBU-V4L-11" edge="1">
          <mxGeometry relative="1" as="geometry" />
        </mxCell>
        <mxCell id="BrUoc6RG7-1IVhZt8apD-3" style="edgeStyle=orthogonalEdgeStyle;rounded=0;orthogonalLoop=1;jettySize=auto;html=1;entryX=0;entryY=0.5;entryDx=0;entryDy=0;endArrow=none;endFill=0;" parent="iczGk36Ovgoqb-Fh8N0Z-1" source="iczGk36Ovgoqb-Fh8N0Z-7" target="lL7mLhba4SzhNa93PelF-0" edge="1">
          <mxGeometry relative="1" as="geometry">
            <Array as="points">
              <mxPoint x="55" y="280" />
              <mxPoint x="730" y="280" />
              <mxPoint x="730" y="190" />
            </Array>
          </mxGeometry>
        </mxCell>
        <mxCell id="iczGk36Ovgoqb-Fh8N0Z-7" value="PK" style="whiteSpace=wrap;html=1;fillColor=#fff2cc;strokeColor=#d6b656;" parent="iczGk36Ovgoqb-Fh8N0Z-1" vertex="1">
          <mxGeometry x="20" y="220" width="70" height="20" as="geometry" />
        </mxCell>
        <mxCell id="iczGk36Ovgoqb-Fh8N0Z-8" value="model_id" style="whiteSpace=wrap;html=1;" parent="iczGk36Ovgoqb-Fh8N0Z-1" vertex="1">
          <mxGeometry x="20" y="200" width="70" height="20" as="geometry" />
        </mxCell>
        <mxCell id="iczGk36Ovgoqb-Fh8N0Z-9" value="model_name" style="whiteSpace=wrap;html=1;" parent="iczGk36Ovgoqb-Fh8N0Z-1" vertex="1">
          <mxGeometry x="210" y="200" width="100" height="20" as="geometry" />
        </mxCell>
        <mxCell id="iczGk36Ovgoqb-Fh8N0Z-12" style="edgeStyle=orthogonalEdgeStyle;rounded=0;orthogonalLoop=1;jettySize=auto;html=1;entryX=0.5;entryY=1;entryDx=0;entryDy=0;endArrow=none;endFill=0;exitX=0.5;exitY=0;exitDx=0;exitDy=0;" parent="iczGk36Ovgoqb-Fh8N0Z-1" source="iczGk36Ovgoqb-Fh8N0Z-11" target="iczGk36Ovgoqb-Fh8N0Z-5" edge="1">
          <mxGeometry relative="1" as="geometry">
            <mxPoint x="190" y="160" as="sourcePoint" />
            <Array as="points">
              <mxPoint x="150" y="150" />
              <mxPoint x="80" y="150" />
            </Array>
          </mxGeometry>
        </mxCell>
        <mxCell id="iczGk36Ovgoqb-Fh8N0Z-10" value="manufacturer_id" style="whiteSpace=wrap;html=1;" parent="iczGk36Ovgoqb-Fh8N0Z-1" vertex="1">
          <mxGeometry x="90" y="200" width="120" height="20" as="geometry" />
        </mxCell>
        <mxCell id="iczGk36Ovgoqb-Fh8N0Z-13" value="1..1" style="text;html=1;align=center;verticalAlign=middle;resizable=0;points=[];autosize=1;strokeColor=none;fillColor=none;" parent="iczGk36Ovgoqb-Fh8N0Z-1" vertex="1">
          <mxGeometry x="40" y="120" width="40" height="20" as="geometry" />
        </mxCell>
        <mxCell id="iczGk36Ovgoqb-Fh8N0Z-14" value="1..*" style="text;html=1;align=center;verticalAlign=middle;resizable=0;points=[];autosize=1;strokeColor=none;fillColor=none;" parent="iczGk36Ovgoqb-Fh8N0Z-1" vertex="1">
          <mxGeometry x="115" y="160" width="30" height="20" as="geometry" />
        </mxCell>
        <mxCell id="iczGk36Ovgoqb-Fh8N0Z-15" value="body_type" style="whiteSpace=wrap;html=1;" parent="iczGk36Ovgoqb-Fh8N0Z-1" vertex="1">
          <mxGeometry x="310" y="200" width="90" height="20" as="geometry" />
        </mxCell>
        <mxCell id="iczGk36Ovgoqb-Fh8N0Z-16" value="year" style="whiteSpace=wrap;html=1;" parent="iczGk36Ovgoqb-Fh8N0Z-1" vertex="1">
          <mxGeometry x="400" y="200" width="60" height="20" as="geometry" />
        </mxCell>
        <mxCell id="iczGk36Ovgoqb-Fh8N0Z-20" value="Automobiles" style="text;html=1;align=center;verticalAlign=middle;resizable=0;points=[];autosize=1;strokeColor=none;fillColor=none;fontStyle=1" parent="iczGk36Ovgoqb-Fh8N0Z-1" vertex="1">
          <mxGeometry x="-380" y="840" width="90" height="20" as="geometry" />
        </mxCell>
        <mxCell id="iczGk36Ovgoqb-Fh8N0Z-22" value="trim_id" style="whiteSpace=wrap;html=1;" parent="iczGk36Ovgoqb-Fh8N0Z-1" vertex="1">
          <mxGeometry x="-320" y="820" width="70" height="20" as="geometry" />
        </mxCell>
        <mxCell id="iczGk36Ovgoqb-Fh8N0Z-25" value="1..1" style="text;html=1;align=center;verticalAlign=middle;resizable=0;points=[];autosize=1;strokeColor=none;fillColor=none;" parent="iczGk36Ovgoqb-Fh8N0Z-1" vertex="1">
          <mxGeometry x="15" y="280" width="40" height="20" as="geometry" />
        </mxCell>
        <mxCell id="iczGk36Ovgoqb-Fh8N0Z-29" value="color" style="whiteSpace=wrap;html=1;" parent="iczGk36Ovgoqb-Fh8N0Z-1" vertex="1">
          <mxGeometry x="-180" y="820" width="70" height="20" as="geometry" />
        </mxCell>
        <mxCell id="CGMDaPfwz_T63MdFcnMW-1" value="Packages" style="text;html=1;align=center;verticalAlign=middle;resizable=0;points=[];autosize=1;strokeColor=none;fillColor=none;" parent="iczGk36Ovgoqb-Fh8N0Z-1" vertex="1">
          <mxGeometry x="-40" y="620" width="70" height="20" as="geometry" />
        </mxCell>
        <mxCell id="QAo90efYxCuKgprQS8cn-2" style="edgeStyle=orthogonalEdgeStyle;rounded=0;orthogonalLoop=1;jettySize=auto;html=1;exitX=0;exitY=0.25;exitDx=0;exitDy=0;entryX=0.5;entryY=0;entryDx=0;entryDy=0;endArrow=none;endFill=0;" parent="iczGk36Ovgoqb-Fh8N0Z-1" source="KYDgk8bsDNhlpdBU-V4L-21" target="QAo90efYxCuKgprQS8cn-0" edge="1">
          <mxGeometry relative="1" as="geometry" />
        </mxCell>
        <mxCell id="KYDgk8bsDNhlpdBU-V4L-3" value="package_id" style="whiteSpace=wrap;html=1;" parent="iczGk36Ovgoqb-Fh8N0Z-1" vertex="1">
          <mxGeometry y="660" width="70" height="20" as="geometry" />
        </mxCell>
        <mxCell id="KYDgk8bsDNhlpdBU-V4L-4" value="name" style="whiteSpace=wrap;html=1;" parent="iczGk36Ovgoqb-Fh8N0Z-1" vertex="1">
          <mxGeometry x="70" y="660" width="100" height="20" as="geometry" />
        </mxCell>
        <mxCell id="KYDgk8bsDNhlpdBU-V4L-9" value="UK" style="whiteSpace=wrap;html=1;fillColor=#d5e8d4;strokeColor=#82b366;" parent="iczGk36Ovgoqb-Fh8N0Z-1" vertex="1">
          <mxGeometry x="60" y="420" width="150" height="20" as="geometry" />
        </mxCell>
        <mxCell id="KYDgk8bsDNhlpdBU-V4L-10" value="name" style="whiteSpace=wrap;html=1;" parent="iczGk36Ovgoqb-Fh8N0Z-1" vertex="1">
          <mxGeometry x="140" y="400" width="70" height="20" as="geometry" />
        </mxCell>
        <mxCell id="KYDgk8bsDNhlpdBU-V4L-11" value="FK" style="whiteSpace=wrap;html=1;fillColor=#dae8fc;strokeColor=#6c8ebf;" parent="iczGk36Ovgoqb-Fh8N0Z-1" vertex="1">
          <mxGeometry x="70" y="380" width="70" height="20" as="geometry" />
        </mxCell>
        <mxCell id="BrUoc6RG7-1IVhZt8apD-2" style="edgeStyle=orthogonalEdgeStyle;rounded=0;orthogonalLoop=1;jettySize=auto;html=1;entryX=0;entryY=0.5;entryDx=0;entryDy=0;endArrow=none;endFill=0;" parent="iczGk36Ovgoqb-Fh8N0Z-1" source="KYDgk8bsDNhlpdBU-V4L-12" target="9PLQaMzXwEtx9iaHG4z_-3" edge="1">
          <mxGeometry relative="1" as="geometry">
            <Array as="points">
              <mxPoint x="35" y="470" />
              <mxPoint x="435" y="470" />
              <mxPoint x="435" y="380" />
            </Array>
          </mxGeometry>
        </mxCell>
        <mxCell id="BrUoc6RG7-1IVhZt8apD-34" style="edgeStyle=orthogonalEdgeStyle;rounded=0;orthogonalLoop=1;jettySize=auto;html=1;entryX=-0.075;entryY=1.236;entryDx=0;entryDy=0;entryPerimeter=0;endArrow=none;endFill=0;" parent="iczGk36Ovgoqb-Fh8N0Z-1" source="KYDgk8bsDNhlpdBU-V4L-12" target="HUQyo91nwI6KtNJE5Rdd-22" edge="1">
          <mxGeometry relative="1" as="geometry">
            <Array as="points">
              <mxPoint x="20" y="500" />
              <mxPoint x="-230" y="500" />
              <mxPoint x="-230" y="585" />
            </Array>
          </mxGeometry>
        </mxCell>
        <mxCell id="KYDgk8bsDNhlpdBU-V4L-12" value="PK" style="whiteSpace=wrap;html=1;fillColor=#fff2cc;strokeColor=#d6b656;" parent="iczGk36Ovgoqb-Fh8N0Z-1" vertex="1">
          <mxGeometry y="420" width="70" height="20" as="geometry" />
        </mxCell>
        <mxCell id="QAo90efYxCuKgprQS8cn-3" style="edgeStyle=orthogonalEdgeStyle;rounded=0;orthogonalLoop=1;jettySize=auto;html=1;exitX=0;exitY=0.5;exitDx=0;exitDy=0;endArrow=none;endFill=0;entryX=0.5;entryY=0;entryDx=0;entryDy=0;" parent="iczGk36Ovgoqb-Fh8N0Z-1" source="KYDgk8bsDNhlpdBU-V4L-12" target="wvRZY2GlwieeTbuoyNKp-2" edge="1">
          <mxGeometry relative="1" as="geometry">
            <mxPoint x="-280" y="790" as="targetPoint" />
            <Array as="points">
              <mxPoint x="-140" y="430" />
              <mxPoint x="-140" y="380" />
              <mxPoint x="-340" y="380" />
              <mxPoint x="-340" y="750" />
              <mxPoint x="-287" y="750" />
              <mxPoint x="-287" y="800" />
            </Array>
          </mxGeometry>
        </mxCell>
        <mxCell id="KYDgk8bsDNhlpdBU-V4L-13" value="trim_id" style="whiteSpace=wrap;html=1;" parent="iczGk36Ovgoqb-Fh8N0Z-1" vertex="1">
          <mxGeometry y="400" width="70" height="20" as="geometry" />
        </mxCell>
        <mxCell id="KYDgk8bsDNhlpdBU-V4L-14" value="model_id" style="whiteSpace=wrap;html=1;" parent="iczGk36Ovgoqb-Fh8N0Z-1" vertex="1">
          <mxGeometry x="70" y="400" width="70" height="20" as="geometry" />
        </mxCell>
        <mxCell id="KYDgk8bsDNhlpdBU-V4L-15" value="price" style="whiteSpace=wrap;html=1;" parent="iczGk36Ovgoqb-Fh8N0Z-1" vertex="1">
          <mxGeometry x="210" y="400" width="70" height="20" as="geometry" />
        </mxCell>
        <mxCell id="HUQyo91nwI6KtNJE5Rdd-18" style="edgeStyle=orthogonalEdgeStyle;rounded=0;orthogonalLoop=1;jettySize=auto;html=1;entryX=0.5;entryY=0;entryDx=0;entryDy=0;endArrow=none;endFill=0;" parent="iczGk36Ovgoqb-Fh8N0Z-1" source="KYDgk8bsDNhlpdBU-V4L-21" target="iPj5VQGkTCmIwQI4NGwS-28" edge="1">
          <mxGeometry relative="1" as="geometry">
            <Array as="points">
              <mxPoint x="35" y="530" />
              <mxPoint x="-160" y="530" />
              <mxPoint x="-160" y="580" />
            </Array>
          </mxGeometry>
        </mxCell>
        <mxCell id="BrUoc6RG7-1IVhZt8apD-1" style="edgeStyle=orthogonalEdgeStyle;rounded=0;orthogonalLoop=1;jettySize=auto;html=1;entryX=0;entryY=0.5;entryDx=0;entryDy=0;endArrow=none;endFill=0;" parent="iczGk36Ovgoqb-Fh8N0Z-1" source="KYDgk8bsDNhlpdBU-V4L-21" target="ZujWJEv4xok4K0TFu9YQ-2" edge="1">
          <mxGeometry relative="1" as="geometry" />
        </mxCell>
        <mxCell id="PdGvECBdAQsYEk5DXZ6r-10" style="edgeStyle=orthogonalEdgeStyle;rounded=0;orthogonalLoop=1;jettySize=auto;html=1;entryX=0.5;entryY=0;entryDx=0;entryDy=0;endArrow=none;endFill=0;" edge="1" parent="iczGk36Ovgoqb-Fh8N0Z-1" source="KYDgk8bsDNhlpdBU-V4L-21" target="PdGvECBdAQsYEk5DXZ6r-9">
          <mxGeometry relative="1" as="geometry">
            <Array as="points">
              <mxPoint x="-60" y="650" />
              <mxPoint x="-60" y="730" />
              <mxPoint x="160" y="730" />
              <mxPoint x="160" y="800" />
            </Array>
          </mxGeometry>
        </mxCell>
        <mxCell id="KYDgk8bsDNhlpdBU-V4L-21" value="PK" style="whiteSpace=wrap;html=1;fillColor=#fff2cc;strokeColor=#d6b656;" parent="iczGk36Ovgoqb-Fh8N0Z-1" vertex="1">
          <mxGeometry y="640" width="70" height="20" as="geometry" />
        </mxCell>
        <mxCell id="iPj5VQGkTCmIwQI4NGwS-3" value="" style="shape=table;html=1;whiteSpace=wrap;startSize=0;container=1;collapsible=0;childLayout=tableLayout;" parent="iczGk36Ovgoqb-Fh8N0Z-1" vertex="1">
          <mxGeometry x="-270" y="600" width="240" height="20" as="geometry" />
        </mxCell>
        <mxCell id="iPj5VQGkTCmIwQI4NGwS-4" value="" style="shape=tableRow;horizontal=0;startSize=0;swimlaneHead=0;swimlaneBody=0;top=0;left=0;bottom=0;right=0;collapsible=0;dropTarget=0;fillColor=none;points=[[0,0.5],[1,0.5]];portConstraint=eastwest;" parent="iPj5VQGkTCmIwQI4NGwS-3" vertex="1">
          <mxGeometry width="240" height="20" as="geometry" />
        </mxCell>
        <mxCell id="iPj5VQGkTCmIwQI4NGwS-19" value="package_id" style="shape=partialRectangle;html=1;whiteSpace=wrap;connectable=0;fillColor=none;top=0;left=0;bottom=0;right=0;overflow=hidden;" parent="iPj5VQGkTCmIwQI4NGwS-4" vertex="1">
          <mxGeometry width="80" height="20" as="geometry">
            <mxRectangle width="80" height="20" as="alternateBounds" />
          </mxGeometry>
        </mxCell>
        <mxCell id="iPj5VQGkTCmIwQI4NGwS-5" value="trim_id" style="shape=partialRectangle;html=1;whiteSpace=wrap;connectable=0;fillColor=none;top=0;left=0;bottom=0;right=0;overflow=hidden;" parent="iPj5VQGkTCmIwQI4NGwS-4" vertex="1">
          <mxGeometry x="80" width="80" height="20" as="geometry">
            <mxRectangle width="80" height="20" as="alternateBounds" />
          </mxGeometry>
        </mxCell>
        <mxCell id="iPj5VQGkTCmIwQI4NGwS-6" value="price" style="shape=partialRectangle;html=1;whiteSpace=wrap;connectable=0;fillColor=none;top=0;left=0;bottom=0;right=0;overflow=hidden;" parent="iPj5VQGkTCmIwQI4NGwS-4" vertex="1">
          <mxGeometry x="160" width="80" height="20" as="geometry">
            <mxRectangle width="80" height="20" as="alternateBounds" />
          </mxGeometry>
        </mxCell>
        <mxCell id="iPj5VQGkTCmIwQI4NGwS-27" value="PK" style="whiteSpace=wrap;html=1;fillColor=#fff2cc;strokeColor=#d6b656;" parent="iczGk36Ovgoqb-Fh8N0Z-1" vertex="1">
          <mxGeometry x="-270" y="620" width="160" height="20" as="geometry" />
        </mxCell>
        <mxCell id="iPj5VQGkTCmIwQI4NGwS-28" value="FK" style="whiteSpace=wrap;html=1;fillColor=#dae8fc;strokeColor=#6c8ebf;" parent="iczGk36Ovgoqb-Fh8N0Z-1" vertex="1">
          <mxGeometry x="-270" y="580" width="80" height="20" as="geometry" />
        </mxCell>
        <mxCell id="iPj5VQGkTCmIwQI4NGwS-31" value="UK" style="whiteSpace=wrap;html=1;fillColor=#d5e8d4;strokeColor=#82b366;" parent="iczGk36Ovgoqb-Fh8N0Z-1" vertex="1">
          <mxGeometry x="70" y="680" width="100" height="20" as="geometry" />
        </mxCell>
        <mxCell id="iPj5VQGkTCmIwQI4NGwS-33" value="FK" style="whiteSpace=wrap;html=1;fillColor=#dae8fc;strokeColor=#6c8ebf;" parent="iczGk36Ovgoqb-Fh8N0Z-1" vertex="1">
          <mxGeometry x="-190" y="580" width="80" height="20" as="geometry" />
        </mxCell>
        <mxCell id="HUQyo91nwI6KtNJE5Rdd-3" value="Trim" style="text;html=1;align=center;verticalAlign=middle;resizable=0;points=[];autosize=1;strokeColor=none;fillColor=none;" parent="iczGk36Ovgoqb-Fh8N0Z-1" vertex="1">
          <mxGeometry x="-10" y="380" width="40" height="20" as="geometry" />
        </mxCell>
        <mxCell id="HUQyo91nwI6KtNJE5Rdd-4" value="1..*" style="text;html=1;align=center;verticalAlign=middle;resizable=0;points=[];autosize=1;strokeColor=none;fillColor=none;" parent="iczGk36Ovgoqb-Fh8N0Z-1" vertex="1">
          <mxGeometry x="-350" y="810" width="30" height="20" as="geometry" />
        </mxCell>
        <mxCell id="HUQyo91nwI6KtNJE5Rdd-6" value="1..1" style="text;html=1;align=center;verticalAlign=middle;resizable=0;points=[];autosize=1;strokeColor=none;fillColor=none;" parent="iczGk36Ovgoqb-Fh8N0Z-1" vertex="1">
          <mxGeometry x="-40" y="390" width="40" height="20" as="geometry" />
        </mxCell>
        <mxCell id="HUQyo91nwI6KtNJE5Rdd-12" value="1..*" style="text;html=1;align=center;verticalAlign=middle;resizable=0;points=[];autosize=1;strokeColor=none;fillColor=none;" parent="iczGk36Ovgoqb-Fh8N0Z-1" vertex="1">
          <mxGeometry x="55" y="250" width="30" height="20" as="geometry" />
        </mxCell>
        <mxCell id="HUQyo91nwI6KtNJE5Rdd-13" value="1..*" style="text;html=1;align=center;verticalAlign=middle;resizable=0;points=[];autosize=1;strokeColor=none;fillColor=none;" parent="iczGk36Ovgoqb-Fh8N0Z-1" vertex="1">
          <mxGeometry x="110" y="360" width="30" height="20" as="geometry" />
        </mxCell>
        <mxCell id="HUQyo91nwI6KtNJE5Rdd-14" value="1..*" style="text;html=1;align=center;verticalAlign=middle;resizable=0;points=[];autosize=1;strokeColor=none;fillColor=none;" parent="iczGk36Ovgoqb-Fh8N0Z-1" vertex="1">
          <mxGeometry x="-5" y="440" width="30" height="20" as="geometry" />
        </mxCell>
        <mxCell id="HUQyo91nwI6KtNJE5Rdd-15" value="1..*" style="text;html=1;align=center;verticalAlign=middle;resizable=0;points=[];autosize=1;strokeColor=none;fillColor=none;" parent="iczGk36Ovgoqb-Fh8N0Z-1" vertex="1">
          <mxGeometry x="45" y="440" width="30" height="20" as="geometry" />
        </mxCell>
        <mxCell id="iPj5VQGkTCmIwQI4NGwS-26" value="trimPackages" style="text;html=1;align=center;verticalAlign=middle;resizable=0;points=[];autosize=1;strokeColor=none;fillColor=none;" parent="iczGk36Ovgoqb-Fh8N0Z-1" vertex="1">
          <mxGeometry x="-330" y="560" width="90" height="20" as="geometry" />
        </mxCell>
        <mxCell id="HUQyo91nwI6KtNJE5Rdd-20" value="1..*" style="text;html=1;align=center;verticalAlign=middle;resizable=0;points=[];autosize=1;strokeColor=none;fillColor=none;" parent="iczGk36Ovgoqb-Fh8N0Z-1" vertex="1">
          <mxGeometry x="30" y="620" width="30" height="20" as="geometry" />
        </mxCell>
        <mxCell id="HUQyo91nwI6KtNJE5Rdd-21" value="1..1" style="text;html=1;align=center;verticalAlign=middle;resizable=0;points=[];autosize=1;strokeColor=none;fillColor=none;" parent="iczGk36Ovgoqb-Fh8N0Z-1" vertex="1">
          <mxGeometry x="-230" y="560" width="40" height="20" as="geometry" />
        </mxCell>
        <mxCell id="HUQyo91nwI6KtNJE5Rdd-22" value="1..1" style="text;html=1;align=center;verticalAlign=middle;resizable=0;points=[];autosize=1;strokeColor=none;fillColor=none;" parent="iczGk36Ovgoqb-Fh8N0Z-1" vertex="1">
          <mxGeometry x="-150" y="560" width="40" height="20" as="geometry" />
        </mxCell>
        <mxCell id="ZujWJEv4xok4K0TFu9YQ-1" value="PackageFeatures" style="text;html=1;align=center;verticalAlign=middle;resizable=0;points=[];autosize=1;strokeColor=none;fillColor=none;" parent="iczGk36Ovgoqb-Fh8N0Z-1" vertex="1">
          <mxGeometry x="730" y="620" width="110" height="20" as="geometry" />
        </mxCell>
        <mxCell id="ZujWJEv4xok4K0TFu9YQ-2" value="PK" style="whiteSpace=wrap;html=1;fillColor=#dae8fc;strokeColor=#6c8ebf;" parent="iczGk36Ovgoqb-Fh8N0Z-1" vertex="1">
          <mxGeometry x="790" y="640" width="70" height="20" as="geometry" />
        </mxCell>
        <mxCell id="ZujWJEv4xok4K0TFu9YQ-3" value="packageID" style="whiteSpace=wrap;html=1;" parent="iczGk36Ovgoqb-Fh8N0Z-1" vertex="1">
          <mxGeometry x="790" y="660" width="70" height="20" as="geometry" />
        </mxCell>
        <mxCell id="ZujWJEv4xok4K0TFu9YQ-5" value="packageFeatureID" style="whiteSpace=wrap;html=1;" parent="iczGk36Ovgoqb-Fh8N0Z-1" vertex="1">
          <mxGeometry x="860" y="660" width="120" height="20" as="geometry" />
        </mxCell>
        <mxCell id="ZujWJEv4xok4K0TFu9YQ-6" value="PK" style="whiteSpace=wrap;html=1;fillColor=#fff2cc;strokeColor=#d6b656;" parent="iczGk36Ovgoqb-Fh8N0Z-1" vertex="1">
          <mxGeometry x="790" y="680" width="190" height="20" as="geometry" />
        </mxCell>
        <mxCell id="lL7mLhba4SzhNa93PelF-0" value="FK" style="whiteSpace=wrap;html=1;fillColor=#dae8fc;strokeColor=#6c8ebf;" parent="iczGk36Ovgoqb-Fh8N0Z-1" vertex="1">
          <mxGeometry x="795" y="180" width="75" height="20" as="geometry" />
        </mxCell>
        <mxCell id="lL7mLhba4SzhNa93PelF-1" value="modelID" style="whiteSpace=wrap;html=1;" parent="iczGk36Ovgoqb-Fh8N0Z-1" vertex="1">
          <mxGeometry x="795" y="200" width="75" height="20" as="geometry" />
        </mxCell>
        <mxCell id="lL7mLhba4SzhNa93PelF-4" value="PK" style="whiteSpace=wrap;html=1;fillColor=#fff2cc;strokeColor=#d6b656;" parent="iczGk36Ovgoqb-Fh8N0Z-1" vertex="1">
          <mxGeometry x="795" y="220" width="175" height="20" as="geometry" />
        </mxCell>
        <mxCell id="lL7mLhba4SzhNa93PelF-5" value="modelFeatureID" style="whiteSpace=wrap;html=1;" parent="iczGk36Ovgoqb-Fh8N0Z-1" vertex="1">
          <mxGeometry x="870" y="200" width="100" height="20" as="geometry" />
        </mxCell>
        <mxCell id="9PLQaMzXwEtx9iaHG4z_-2" value="ModelFeatures" style="text;html=1;align=center;verticalAlign=middle;resizable=0;points=[];autosize=1;strokeColor=none;fillColor=none;" parent="iczGk36Ovgoqb-Fh8N0Z-1" vertex="1">
          <mxGeometry x="745" y="160" width="100" height="20" as="geometry" />
        </mxCell>
        <mxCell id="9PLQaMzXwEtx9iaHG4z_-3" value="FK" style="whiteSpace=wrap;html=1;fillColor=#dae8fc;strokeColor=#6c8ebf;" parent="iczGk36Ovgoqb-Fh8N0Z-1" vertex="1">
          <mxGeometry x="800" y="370" width="70" height="20" as="geometry" />
        </mxCell>
        <mxCell id="9PLQaMzXwEtx9iaHG4z_-4" value="trimID" style="whiteSpace=wrap;html=1;" parent="iczGk36Ovgoqb-Fh8N0Z-1" vertex="1">
          <mxGeometry x="800" y="390" width="70" height="20" as="geometry" />
        </mxCell>
        <mxCell id="9PLQaMzXwEtx9iaHG4z_-5" value="PK" style="whiteSpace=wrap;html=1;fillColor=#fff2cc;strokeColor=#d6b656;" parent="iczGk36Ovgoqb-Fh8N0Z-1" vertex="1">
          <mxGeometry x="800" y="410" width="170" height="20" as="geometry" />
        </mxCell>
        <mxCell id="9PLQaMzXwEtx9iaHG4z_-6" value="trimFeatureID" style="whiteSpace=wrap;html=1;" parent="iczGk36Ovgoqb-Fh8N0Z-1" vertex="1">
          <mxGeometry x="870" y="390" width="100" height="20" as="geometry" />
        </mxCell>
        <mxCell id="9PLQaMzXwEtx9iaHG4z_-7" value="TrimFeatures" style="text;html=1;align=center;verticalAlign=middle;resizable=0;points=[];autosize=1;strokeColor=none;fillColor=none;" parent="iczGk36Ovgoqb-Fh8N0Z-1" vertex="1">
          <mxGeometry x="755" y="350" width="90" height="20" as="geometry" />
        </mxCell>
        <mxCell id="BrUoc6RG7-1IVhZt8apD-21" style="edgeStyle=orthogonalEdgeStyle;rounded=0;orthogonalLoop=1;jettySize=auto;html=1;entryX=0.5;entryY=0;entryDx=0;entryDy=0;endArrow=none;endFill=0;" parent="iczGk36Ovgoqb-Fh8N0Z-1" source="BrUoc6RG7-1IVhZt8apD-7" target="BrUoc6RG7-1IVhZt8apD-19" edge="1">
          <mxGeometry relative="1" as="geometry" />
        </mxCell>
        <mxCell id="BrUoc6RG7-1IVhZt8apD-7" value="PK" style="whiteSpace=wrap;html=1;fillColor=#fff2cc;strokeColor=#d6b656;" parent="iczGk36Ovgoqb-Fh8N0Z-1" vertex="1">
          <mxGeometry x="1150" y="360" width="100" height="20" as="geometry" />
        </mxCell>
        <mxCell id="BrUoc6RG7-1IVhZt8apD-9" value="Features" style="text;html=1;align=center;verticalAlign=middle;resizable=0;points=[];autosize=1;strokeColor=none;fillColor=none;" parent="iczGk36Ovgoqb-Fh8N0Z-1" vertex="1">
          <mxGeometry x="1140" y="400" width="60" height="20" as="geometry" />
        </mxCell>
        <mxCell id="BrUoc6RG7-1IVhZt8apD-16" value="featureID" style="whiteSpace=wrap;html=1;" parent="iczGk36Ovgoqb-Fh8N0Z-1" vertex="1">
          <mxGeometry x="1150" y="380" width="100" height="20" as="geometry" />
        </mxCell>
        <mxCell id="OPE7IblVLm1GwvgHM6hA-8" style="edgeStyle=orthogonalEdgeStyle;rounded=0;orthogonalLoop=1;jettySize=auto;html=1;entryX=0.5;entryY=0;entryDx=0;entryDy=0;endArrow=none;endFill=0;" parent="iczGk36Ovgoqb-Fh8N0Z-1" source="BrUoc6RG7-1IVhZt8apD-18" target="BrUoc6RG7-1IVhZt8apD-7" edge="1">
          <mxGeometry relative="1" as="geometry" />
        </mxCell>
        <mxCell id="BrUoc6RG7-1IVhZt8apD-18" value="FK" style="whiteSpace=wrap;html=1;fillColor=#dae8fc;strokeColor=#6c8ebf;" parent="iczGk36Ovgoqb-Fh8N0Z-1" vertex="1">
          <mxGeometry x="870" y="180" width="100" height="20" as="geometry" />
        </mxCell>
        <mxCell id="BrUoc6RG7-1IVhZt8apD-19" value="FK" style="whiteSpace=wrap;html=1;fillColor=#dae8fc;strokeColor=#6c8ebf;" parent="iczGk36Ovgoqb-Fh8N0Z-1" vertex="1">
          <mxGeometry x="870" y="370" width="100" height="20" as="geometry" />
        </mxCell>
        <mxCell id="OPE7IblVLm1GwvgHM6hA-9" style="edgeStyle=orthogonalEdgeStyle;rounded=0;orthogonalLoop=1;jettySize=auto;html=1;entryX=1;entryY=0.5;entryDx=0;entryDy=0;endArrow=none;endFill=0;" parent="iczGk36Ovgoqb-Fh8N0Z-1" source="BrUoc6RG7-1IVhZt8apD-20" target="BrUoc6RG7-1IVhZt8apD-7" edge="1">
          <mxGeometry relative="1" as="geometry">
            <Array as="points">
              <mxPoint x="1520" y="650" />
              <mxPoint x="1520" y="370" />
            </Array>
          </mxGeometry>
        </mxCell>
        <mxCell id="BrUoc6RG7-1IVhZt8apD-20" value="FK" style="whiteSpace=wrap;html=1;fillColor=#dae8fc;strokeColor=#6c8ebf;" parent="iczGk36Ovgoqb-Fh8N0Z-1" vertex="1">
          <mxGeometry x="860" y="640" width="120" height="20" as="geometry" />
        </mxCell>
        <mxCell id="BrUoc6RG7-1IVhZt8apD-24" value="1..*" style="text;html=1;align=center;verticalAlign=middle;resizable=0;points=[];autosize=1;strokeColor=none;fillColor=none;" parent="iczGk36Ovgoqb-Fh8N0Z-1" vertex="1">
          <mxGeometry x="1120" y="380" width="30" height="20" as="geometry" />
        </mxCell>
        <mxCell id="BrUoc6RG7-1IVhZt8apD-25" value="1..*" style="text;html=1;align=center;verticalAlign=middle;resizable=0;points=[];autosize=1;strokeColor=none;fillColor=none;" parent="iczGk36Ovgoqb-Fh8N0Z-1" vertex="1">
          <mxGeometry x="1250" y="350" width="30" height="20" as="geometry" />
        </mxCell>
        <mxCell id="BrUoc6RG7-1IVhZt8apD-26" value="1..*" style="text;html=1;align=center;verticalAlign=middle;resizable=0;points=[];autosize=1;strokeColor=none;fillColor=none;" parent="iczGk36Ovgoqb-Fh8N0Z-1" vertex="1">
          <mxGeometry x="1170" y="340" width="30" height="20" as="geometry" />
        </mxCell>
        <mxCell id="BrUoc6RG7-1IVhZt8apD-27" value="1..1" style="text;html=1;align=center;verticalAlign=middle;resizable=0;points=[];autosize=1;strokeColor=none;fillColor=none;" parent="iczGk36Ovgoqb-Fh8N0Z-1" vertex="1">
          <mxGeometry x="915" y="620" width="40" height="20" as="geometry" />
        </mxCell>
        <mxCell id="BrUoc6RG7-1IVhZt8apD-28" value="1..1" style="text;html=1;align=center;verticalAlign=middle;resizable=0;points=[];autosize=1;strokeColor=none;fillColor=none;" parent="iczGk36Ovgoqb-Fh8N0Z-1" vertex="1">
          <mxGeometry x="750" y="650" width="40" height="20" as="geometry" />
        </mxCell>
        <mxCell id="BrUoc6RG7-1IVhZt8apD-29" value="1..1" style="text;html=1;align=center;verticalAlign=middle;resizable=0;points=[];autosize=1;strokeColor=none;fillColor=none;" parent="iczGk36Ovgoqb-Fh8N0Z-1" vertex="1">
          <mxGeometry x="880" y="350" width="40" height="20" as="geometry" />
        </mxCell>
        <mxCell id="BrUoc6RG7-1IVhZt8apD-30" value="1..1" style="text;html=1;align=center;verticalAlign=middle;resizable=0;points=[];autosize=1;strokeColor=none;fillColor=none;" parent="iczGk36Ovgoqb-Fh8N0Z-1" vertex="1">
          <mxGeometry x="760" y="380" width="40" height="20" as="geometry" />
        </mxCell>
        <mxCell id="BrUoc6RG7-1IVhZt8apD-31" value="1..1" style="text;html=1;align=center;verticalAlign=middle;resizable=0;points=[];autosize=1;strokeColor=none;fillColor=none;" parent="iczGk36Ovgoqb-Fh8N0Z-1" vertex="1">
          <mxGeometry x="875" y="160" width="40" height="20" as="geometry" />
        </mxCell>
        <mxCell id="BrUoc6RG7-1IVhZt8apD-32" value="1..1" style="text;html=1;align=center;verticalAlign=middle;resizable=0;points=[];autosize=1;strokeColor=none;fillColor=none;" parent="iczGk36Ovgoqb-Fh8N0Z-1" vertex="1">
          <mxGeometry x="755" y="190" width="40" height="20" as="geometry" />
        </mxCell>
        <mxCell id="BrUoc6RG7-1IVhZt8apD-33" value="1..*" style="text;html=1;align=center;verticalAlign=middle;resizable=0;points=[];autosize=1;strokeColor=none;fillColor=none;" parent="iczGk36Ovgoqb-Fh8N0Z-1" vertex="1">
          <mxGeometry x="85" y="630" width="30" height="20" as="geometry" />
        </mxCell>
        <mxCell id="OPE7IblVLm1GwvgHM6hA-2" value="feature" style="whiteSpace=wrap;html=1;" parent="iczGk36Ovgoqb-Fh8N0Z-1" vertex="1">
          <mxGeometry x="1250" y="380" width="100" height="20" as="geometry" />
        </mxCell>
        <mxCell id="OPE7IblVLm1GwvgHM6hA-5" value="UK" style="whiteSpace=wrap;html=1;fillColor=#d5e8d4;strokeColor=#82b366;" parent="iczGk36Ovgoqb-Fh8N0Z-1" vertex="1">
          <mxGeometry x="1250" y="400" width="100" height="20" as="geometry" />
        </mxCell>
        <mxCell id="wvRZY2GlwieeTbuoyNKp-0" value="packageID" style="whiteSpace=wrap;html=1;" parent="iczGk36Ovgoqb-Fh8N0Z-1" vertex="1">
          <mxGeometry x="-250" y="820" width="70" height="20" as="geometry" />
        </mxCell>
        <mxCell id="wvRZY2GlwieeTbuoyNKp-2" value="FK" style="whiteSpace=wrap;html=1;fillColor=#dae8fc;strokeColor=#6c8ebf;" parent="iczGk36Ovgoqb-Fh8N0Z-1" vertex="1">
          <mxGeometry x="-320" y="800" width="70" height="20" as="geometry" />
        </mxCell>
        <mxCell id="QAo90efYxCuKgprQS8cn-0" value="FK" style="whiteSpace=wrap;html=1;fillColor=#dae8fc;strokeColor=#6c8ebf;" parent="iczGk36Ovgoqb-Fh8N0Z-1" vertex="1">
          <mxGeometry x="-250" y="800" width="70" height="20" as="geometry" />
        </mxCell>
        <mxCell id="PdGvECBdAQsYEk5DXZ6r-0" value="AutomobilesPackages" style="text;html=1;align=center;verticalAlign=middle;resizable=0;points=[];autosize=1;strokeColor=none;fillColor=none;" vertex="1" parent="iczGk36Ovgoqb-Fh8N0Z-1">
          <mxGeometry x="30" y="780" width="130" height="20" as="geometry" />
        </mxCell>
        <mxCell id="PdGvECBdAQsYEk5DXZ6r-1" value="package_id" style="whiteSpace=wrap;html=1;" vertex="1" parent="iczGk36Ovgoqb-Fh8N0Z-1">
          <mxGeometry x="120" y="820" width="70" height="20" as="geometry" />
        </mxCell>
        <mxCell id="PdGvECBdAQsYEk5DXZ6r-2" value="VIN" style="whiteSpace=wrap;html=1;" vertex="1" parent="iczGk36Ovgoqb-Fh8N0Z-1">
          <mxGeometry x="190" y="820" width="70" height="20" as="geometry" />
        </mxCell>
        <mxCell id="PdGvECBdAQsYEk5DXZ6r-9" value="FK" style="whiteSpace=wrap;html=1;fillColor=#dae8fc;strokeColor=#6c8ebf;" vertex="1" parent="iczGk36Ovgoqb-Fh8N0Z-1">
          <mxGeometry x="120" y="800" width="70" height="20" as="geometry" />
        </mxCell>
        <mxCell id="PdGvECBdAQsYEk5DXZ6r-12" value="FK" style="whiteSpace=wrap;html=1;fillColor=#dae8fc;strokeColor=#6c8ebf;" vertex="1" parent="iczGk36Ovgoqb-Fh8N0Z-1">
          <mxGeometry x="190" y="800" width="70" height="20" as="geometry" />
        </mxCell>
        <mxCell id="PdGvECBdAQsYEk5DXZ6r-14" value="PK" style="whiteSpace=wrap;html=1;fillColor=#fff2cc;strokeColor=#d6b656;" vertex="1" parent="iczGk36Ovgoqb-Fh8N0Z-1">
          <mxGeometry x="120" y="840" width="140" height="20" as="geometry" />
        </mxCell>
        <mxCell id="PdGvECBdAQsYEk5DXZ6r-15" value="valid" style="whiteSpace=wrap;html=1;" vertex="1" parent="iczGk36Ovgoqb-Fh8N0Z-1">
          <mxGeometry x="260" y="820" width="70" height="20" as="geometry" />
        </mxCell>
      </root>
    </mxGraphModel>
  </diagram>
</mxfile>
